HIERARCHY
ROOT SpineBase
{
  OFFSET 0.000000 0.000000 0.000000
  CHANNELS 6 Xposition Yposition Zposition Zrotation Xrotation Yrotation
  JOINT SpineMid
  {
    OFFSET -0.000000 31.652950 0.000000
    CHANNELS 3 Zrotation Xrotation Yrotation
    JOINT SpineShoulder
    {
      OFFSET 0.051979 23.447792 -0.805770
      CHANNELS 3 Zrotation Xrotation Yrotation
      JOINT Neck
      {
        OFFSET 0.037248 7.734398 -0.596570
        CHANNELS 3 Zrotation Xrotation Yrotation
        JOINT Head
        {
          OFFSET -5.755759 12.686747 1.199737
          CHANNELS 3 Zrotation Xrotation Yrotation
          End Site
          {
            OFFSET 0 0 0
          }
        }
      }
      JOINT ShoulderLeft
      {
        OFFSET -15.804728 -4.657682 6.603259
        CHANNELS 3 Zrotation Xrotation Yrotation
        JOINT ElbowLeft
        {
          OFFSET -3.714202 -26.695365 6.325371
          CHANNELS 3 Zrotation Xrotation Yrotation
          JOINT WristLeft
          {
            OFFSET -0.680773 -22.883256 -2.129275
            CHANNELS 3 Zrotation Xrotation Yrotation
            JOINT HandLeft
            {
              OFFSET -1.903033 -7.404226 -0.899476
              CHANNELS 3 Zrotation Xrotation Yrotation
              JOINT HandTipLeft
              {
                OFFSET -0.149304 -8.435225 -0.004709
                CHANNELS 3 Zrotation Xrotation Yrotation
                End Site
                {
                  OFFSET 0 0 0
                }
              }
              JOINT ThumbLeft
              {
                OFFSET 2.745224 -1.626746 -0.478550
                CHANNELS 3 Zrotation Xrotation Yrotation
                End Site
                {
                  OFFSET 0 0 0
                }
              }
            }
          }
        }
      }
      JOINT ShoulderRight
      {
        OFFSET 13.496740 -4.781260 -9.688809
        CHANNELS 3 Zrotation Xrotation Yrotation
        JOINT ElbowRight
        {
          OFFSET 7.197316 -27.233812 -3.311556
          CHANNELS 3 Zrotation Xrotation Yrotation
          JOINT WristRight
          {
            OFFSET 0.495447 -22.066007 -4.369984
            CHANNELS 3 Zrotation Xrotation Yrotation
            JOINT HandRight
            {
              OFFSET -0.419493 -6.202945 -0.284179
              CHANNELS 3 Zrotation Xrotation Yrotation
              JOINT HandTipRight
              {
                OFFSET -0.876931 -7.766295 -0.332982
                CHANNELS 3 Zrotation Xrotation Yrotation
                End Site
                {
                  OFFSET 0 0 0
                }
              }
              JOINT ThumbRight
              {
                OFFSET -3.825886 1.211453 0.620543
                CHANNELS 3 Zrotation Xrotation Yrotation
                End Site
                {
                  OFFSET 0 0 0
                }
              }
            }
          }
        }
      }
    }
  }
  JOINT HipLeft
  {
    OFFSET -6.683553 -0.023704 -0.446391
    CHANNELS 3 Zrotation Xrotation Yrotation
    JOINT KneeLeft
    {
      OFFSET 3.004967 -37.342158 7.087966
      CHANNELS 3 Zrotation Xrotation Yrotation
      JOINT AnkleLeft
      {
        OFFSET 5.715516 -34.643863 9.601646
        CHANNELS 3 Zrotation Xrotation Yrotation
        JOINT FootLeft
        {
          OFFSET -2.342807 -8.289808 -5.387738
          CHANNELS 3 Zrotation Xrotation Yrotation
          End Site
          {
            OFFSET 0 0 0
          }
        }
      }
    }
  }
  JOINT HipRight
  {
    OFFSET 7.013141 1.374093 -6.658344
    CHANNELS 3 Zrotation Xrotation Yrotation
    JOINT KneeRight
    {
      OFFSET 8.783313 -35.379638 1.934560
      CHANNELS 3 Zrotation Xrotation Yrotation
      JOINT AnkleRight
      {
        OFFSET 8.910669 -37.987480 11.652184
        CHANNELS 3 Zrotation Xrotation Yrotation
        JOINT FootRight
        {
          OFFSET -0.247309 -8.705883 -4.592310
          CHANNELS 3 Zrotation Xrotation Yrotation
          End Site
          {
            OFFSET 0 0 0
          }
        }
      }
    }
  }
}
MOTION
Frames: 14
Frame Time: 0.033333
-13.445596 85.966841 344.569234 38.755175 -10.972514 14.206679 -3.414932 2.396172 -9.217692 3.041873 -1.036894 1.855686 -14.901521 -19.320588 -13.430864 0.000000 0.000000 0.000000 -18.360724 13.124992 1.240706 -8.713009 9.827150 -6.389672 9.577380 -19.888127 5.748688 -0.201012 11.819751 -2.291143 0.000000 0.000000 0.000000 0.000000 0.000000 0.000000 4.005380 0.649964 -11.167646 3.046327 17.200006 -9.072594 2.153659 10.626175 0.877928 2.395776 -6.499351 3.452248 0.000000 0.000000 0.000000 0.000000 0.000000 0.000000 -43.916087 27.456916 -2.397995 7.861371 -3.566631 2.461209 -0.213899 18.948658 -7.512315 0.000000 0.000000 0.000000 -178.411043 74.189172 155.601225 136.837763 -33.708382 134.677993 120.989168 78.150793 -179.103521 0.000000 0.000000 0.000000
-11.874394 87.143539 345.229119 42.778039 -11.176365 14.090219 -3.860328 1.490573 -8.125117 2.325747 -0.919581 1.995229 -17.186973 -19.638147 -13.901113 0.000000 0.000000 0.000000 -21.682763 14.558723 1.378387 -6.746965 9.794076 -6.576999 2.736551 -20.940402 5.247919 5.697165 10.857500 -3.545714 0.000000 0.000000 0.000000 0.000000 0.000000 0.000000 4.269990 0.817578 -12.268464 7.023439 18.989526 -12.397390 5.800830 14.825635 -1.538227 6.736203 -3.585552 3.330332 0.000000 0.000000 0.000000 0.000000 0.000000 0.000000 -50.473530 28.223493 -0.226471 9.390488 -3.721356 2.909169 0.283066 23.089332 -8.610943 0.000000 0.000000 0.000000 173.069649 73.727470 162.529967 120.274944 -34.558601 125.157031 66.624215 74.774511 -133.207525 0.000000 0.000000 0.000000
-10.731511 87.723310 346.312852 45.517219 -11.927538 13.486209 -3.114650 0.659598 -6.615622 1.465569 -0.756507 2.124446 -18.095076 -19.322630 -14.229681 0.000000 0.000000 0.000000 -26.056737 13.709067 2.374551 -3.993305 12.577826 -6.912186 0.156703 -21.626866 5.104261 10.033408 11.285049 -4.576274 0.000000 0.000000 0.000000 0.000000 0.000000 0.000000 5.821325 1.716393 -13.816711 10.352383 20.473855 -16.050459 8.803545 16.716615 -3.044692 7.306113 1.000790 -0.178250 0.000000 0.000000 0.000000 0.000000 0.000000 0.000000 -56.087644 29.741344 2.616415 11.503684 -5.683731 3.478585 2.495990 22.951314 -10.198058 0.000000 0.000000 0.000000 164.362478 76.018367 171.770474 96.038655 -37.106421 107.271280 24.968412 66.510724 -97.976805 0.000000 0.000000 0.000000
-9.957643 87.576379 347.439084 47.197655 -12.799857 13.442172 -2.233443 0.108056 -5.819350 0.572681 -0.580800 2.218122 -17.260578 -19.333913 -14.639106 0.000000 0.000000 0.000000 -29.855326 10.603002 3.886027 -0.356309 13.966892 -7.409517 0.651152 -23.232511 6.817265 11.275492 16.853207 -7.624699 0.000000 0.000000 0.000000 0.000000 0.000000 0.000000 8.859352 2.166392 -15.533431 12.617482 21.579121 -19.467667 12.609656 17.172039 -3.466415 4.402969 1.043407 -1.407792 0.000000 0.000000 0.000000 0.000000 0.000000 0.000000 -59.945851 32.093056 4.953250 12.937291 -8.065590 3.909581 1.448276 32.099019 -11.335001 0.000000 0.000000 0.000000 144.558300 77.638710 -165.644024 66.882026 -38.037161 82.826615 1.312738 46.934152 -75.875617 0.000000 0.000000 0.000000
-9.603935 86.374758 348.517697 47.349945 -13.650325 13.144454 -1.138020 -0.219864 -5.146379 0.440898 -0.372243 2.198615 -14.466397 -19.486970 -15.017579 0.000000 0.000000 0.000000 -32.351213 5.679092 5.540099 2.096928 13.302442 -7.936104 3.969023 -23.212881 9.063282 13.479129 21.021342 -11.912966 0.000000 0.000000 0.000000 0.000000 0.000000 0.000000 11.861487 2.889914 -17.116449 14.426261 21.388625 -21.915656 15.342170 16.305782 -2.273623 -0.120785 1.415620 -3.944589 0.000000 0.000000 0.000000 0.000000 0.000000 0.000000 -62.260584 34.473915 7.092344 14.287709 -10.874220 4.341193 0.500237 40.710707 -12.211264 0.000000 0.000000 0.000000 129.467122 76.371666 -146.839287 42.331796 -35.821192 60.192623 -5.423241 25.832120 -65.089590 0.000000 0.000000 0.000000
-9.186430 84.964195 349.022497 47.227453 -13.778097 11.933933 -0.816722 -0.546592 -3.822273 0.029512 -0.121642 2.130267 -8.183680 -20.154529 -15.368938 0.000000 0.000000 0.000000 -33.806050 -0.963212 7.013481 4.997867 11.466884 -8.652862 5.525710 -19.257040 9.390486 11.782288 18.615964 -12.392974 0.000000 0.000000 0.000000 0.000000 0.000000 0.000000 14.840789 3.177375 -18.091498 15.842770 20.715474 -23.390174 13.149585 13.153732 1.342521 -0.346014 3.183883 -6.141004 0.000000 0.000000 0.000000 0.000000 0.000000 0.000000 -64.108629 33.757327 8.387461 15.642373 -11.163656 4.817904 0.293875 46.943148 -13.311296 0.000000 0.000000 0.000000 120.380124 76.966136 -135.563866 28.377126 -31.922988 45.886027 -6.059571 11.547484 -58.893527 0.000000 0.000000 0.000000
-9.025486 83.306730 349.254224 46.394367 -13.771089 11.266030 0.143142 -0.666125 -3.397897 -0.627973 -0.127488 2.186053 -1.996095 -20.057379 -15.504874 0.000000 0.000000 0.000000 -34.370404 -7.536290 8.247867 7.581638 8.436722 -9.582639 6.606032 -15.653058 9.741689 7.252508 17.650425 -12.177849 0.000000 0.000000 0.000000 0.000000 0.000000 0.000000 17.152207 4.340338 -18.935761 15.382436 19.526829 -23.055793 13.388536 12.607038 2.155191 3.013495 -0.209547 -0.428356 0.000000 0.000000 0.000000 0.000000 0.000000 0.000000 -65.224060 34.333213 9.300874 16.697772 -12.565100 5.118096 4.740160 43.623687 -15.821019 0.000000 0.000000 0.000000 113.564638 76.860097 -126.526573 24.419185 -32.409754 42.140144 -7.630710 11.577148 -57.103113 0.000000 0.000000 0.000000
-8.500929 82.695444 349.308845 47.033186 -13.941337 12.448473 -0.673933 0.031790 -4.556109 -0.778073 -0.452283 2.312993 2.290723 -19.114262 -15.546236 0.000000 0.000000 0.000000 -33.590721 -12.930722 9.419344 8.122377 5.341155 -10.289248 8.150418 -10.690651 8.573621 1.711806 14.725713 -10.027676 0.000000 0.000000 0.000000 0.000000 0.000000 0.000000 18.819917 5.346630 -19.584894 12.997366 18.384952 -21.536355 10.366410 14.384362 -0.471716 3.804088 -4.531571 5.282730 0.000000 0.000000 0.000000 0.000000 0.000000 0.000000 -66.399363 35.510902 9.367040 16.888821 -12.682435 5.123745 1.150919 40.160478 -11.800135 0.000000 0.000000 0.000000 117.896277 76.540500 -132.647899 30.627474 -38.526108 47.717788 -2.551238 18.036638 -59.192140 0.000000 0.000000 0.000000
-8.493680 82.281656 348.777035 46.611298 -13.573537 13.234327 -1.097372 0.223362 -5.589015 -0.901226 -0.990319 2.488134 7.012324 -17.450688 -15.686487 0.000000 0.000000 0.000000 -31.108599 -16.247861 10.436145 7.296880 2.047588 -10.588719 8.907341 -8.605066 8.592268 1.014762 13.840133 -10.784394 0.000000 0.000000 0.000000 0.000000 0.000000 0.000000 19.757969 6.303794 -19.877120 12.099339 17.890818 -20.797419 3.819941 12.007923 0.872446 6.181937 -5.781912 7.123144 0.000000 0.000000 0.000000 0.000000 0.000000 0.000000 -64.328653 35.512328 7.852814 15.662677 -12.030408 4.619884 -4.494773 41.933446 -7.339945 0.000000 0.000000 0.000000 127.279454 75.228050 -143.054968 47.878269 -47.112454 65.211014 -0.582537 28.673038 -62.865918 0.000000 0.000000 0.000000
-8.372430 82.194743 347.532406 46.387666 -12.271221 13.697819 -0.780865 -0.147233 -6.559322 -1.279717 -0.911355 2.478739 7.671959 -16.892595 -15.102690 0.000000 0.000000 0.000000 -28.964762 -19.295403 11.289366 5.768076 -0.337710 -10.660723 9.817100 -5.541829 7.318762 1.075062 13.542147 -11.150525 0.000000 0.000000 0.000000 0.000000 0.000000 0.000000 18.770312 6.854983 -19.157978 10.618027 17.943663 -19.857020 3.302568 11.895918 0.659677 5.258084 -9.870375 10.424031 0.000000 0.000000 0.000000 0.000000 0.000000 0.000000 -62.235048 33.429900 5.256181 14.747617 -10.056326 4.220821 -12.678763 46.218179 -1.359882 0.000000 0.000000 0.000000 132.794542 76.075789 -150.696761 74.715357 -50.962597 90.651993 6.696434 39.959840 -70.197889 0.000000 0.000000 0.000000
-8.276649 82.379445 346.814974 46.372632 -11.250631 14.862525 -1.395473 -0.391032 -7.979970 -1.594927 -0.220024 2.178690 7.814133 -17.158149 -14.339962 0.000000 0.000000 0.000000 -26.147905 -19.760733 11.442030 4.126808 -3.534039 -10.126360 9.406081 -3.703848 6.890423 5.658552 12.216716 -13.415874 0.000000 0.000000 0.000000 0.000000 0.000000 0.000000 17.145187 7.089134 -17.851231 10.013258 17.596911 -18.641012 3.055507 10.838898 1.351156 3.980218 -11.118483 10.326160 0.000000 0.000000 0.000000 0.000000 0.000000 0.000000 -60.449810 33.656077 3.152946 13.731958 -10.149834 3.793451 -21.535333 51.407672 5.506357 0.000000 0.000000 0.000000 148.079456 76.006568 -170.458096 104.324245 -45.646806 115.460970 14.381033 47.959542 -77.236588 0.000000 0.000000 0.000000
-8.101047 83.157874 345.497047 46.957719 -9.127520 16.649304 -2.307092 -1.178675 -10.164746 -2.355687 0.313924 1.978654 5.506988 -17.970683 -13.434623 0.000000 0.000000 0.000000 -22.661105 -18.868067 11.440729 1.296771 -6.956837 -9.103532 9.205322 -3.700368 7.286268 5.442932 17.503531 -15.137616 0.000000 0.000000 0.000000 0.000000 0.000000 0.000000 16.564362 7.333775 -16.821347 8.287179 16.858921 -17.235207 1.989626 8.653723 2.656994 2.729653 -10.768304 8.714249 0.000000 0.000000 0.000000 0.000000 0.000000 0.000000 -58.889463 32.812597 -0.402865 13.016849 -9.386259 3.466227 -84.177333 69.582213 60.511777 0.000000 0.000000 0.000000 149.969418 75.688698 -175.787128 128.881184 -40.840786 134.404991 24.704661 55.470183 -82.084091 0.000000 0.000000 0.000000
-8.166826 83.977865 344.527692 46.595079 -7.656776 17.661004 -3.276600 -1.337279 -11.687476 -2.352582 0.811145 1.712346 2.005036 -19.524553 -12.725305 0.000000 0.000000 0.000000 -19.941261 -17.123351 10.850875 -0.989213 -8.115635 -8.271378 10.819209 -3.733258 6.125514 5.829929 22.669198 -16.237461 0.000000 0.000000 0.000000 0.000000 0.000000 0.000000 15.305898 7.149475 -15.427266 6.541518 16.574770 -15.803196 3.000018 7.170460 3.537573 0.761829 -9.212516 6.220965 0.000000 0.000000 0.000000 0.000000 0.000000 0.000000 -57.056602 32.315727 -2.907259 12.696058 -9.554937 3.282948 -109.202031 67.862136 83.500967 0.000000 0.000000 0.000000 156.967292 76.881768 174.072866 144.403609 -37.807483 142.362185 24.912798 56.976340 -74.876061 0.000000 0.000000 0.000000
-9.055561 83.756539 343.657234 43.788175 -6.475094 18.546644 -3.076287 -1.454240 -13.429429 -1.918178 1.228356 1.425279 -0.629392 -21.916334 -12.289516 0.000000 0.000000 0.000000 -16.992023 -14.312896 9.698781 -2.788712 -10.439596 -7.243910 10.045694 -2.772618 5.456769 8.306805 30.191744 -18.745896 0.000000 0.000000 0.000000 0.000000 0.000000 0.000000 14.412233 6.296703 -13.789810 5.596804 16.380711 -14.579967 2.437990 6.268429 3.683741 -0.184175 -8.860074 5.160052 0.000000 0.000000 0.000000 0.000000 0.000000 0.000000 -51.599552 31.802031 -6.152624 11.699278 -9.907877 2.985900 -129.324874 58.649306 99.924295 0.000000 0.000000 0.000000 159.040387 78.531843 172.654187 155.348853 -39.217000 147.865705 16.757688 55.070128 -57.469766 0.000000 0.000000 0.000000
